<?xml version="1.0" encoding="utf-8"?>
<!-- Generator: Adobe Illustrator 26.0.3, SVG Export Plug-In . SVG Version: 6.00 Build 0)  -->
<svg version="1.1" id="Слой_1" xmlns="http://www.w3.org/2000/svg" xmlns:xlink="http://www.w3.org/1999/xlink" x="0px" y="0px"
	 viewBox="0 0 238.2 213.5" style="enable-background:new 0 0 238.2 213.5;" xml:space="preserve">
<style type="text/css">
	.st0{fill-rule:evenodd;clip-rule:evenodd;fill:#004799;}
	.st1{fill-rule:evenodd;clip-rule:evenodd;fill:#FFFFFF;}
</style>
<g>
	<path class="st0" d="M29.2,145.3c0,0,6.1,9.4,19,12.5c22,5.3,54-2.1,68.8,25.5l0,0c1,1.9,2.1,4.2,2.6,5.9c0.1-1.8-0.3-4.8-1.3-8.1
		c15.4-24.9,46.2-18.1,67.5-23.2c12.9-3.1,19-12.5,19-12.5c0,1-0.1,2-0.1,3c0.1,38.7-31.3,35.9-44.4,37.7
		c-20.5,2.9-36.7,13.2-43.3,25l0,0.1l0-0.1c-6.7-11.8-22.4-22.5-43.3-25c-14.2-1.6-44.5-0.3-44.4-39.5
		C29.2,146.1,29.2,145.7,29.2,145.3z"/>
	<g>
		<path class="st0" d="M94.9,138.4L94.9,138.4c0.4-0.3,4.1-2.9,8.6-3.6c0.5-0.1,1.1-0.1,1.6-0.2c1.8-0.2,4.6-0.6,7.5-1.3
			c2.9-0.7,5.9-1.7,8.4-3.3l1.6-1c1.1-3.7,1.1-6.8,1.1-7.5c0-0.3-0.1-0.9,0-1.2l0.2-0.6c1.3-3,0.7-6-0.6-8.9c0.4-0.2,0.6-0.4,1-0.5
			h0c0.3-1.3,1.6-2.3,2.9-2.8c-1-0.3-2.2-0.9-3.2-1.6l-2.8-1.2c-1.9-0.8-3.4-2.8-4.2-4.7c-1.5-1.3-2.8-2.2-3.5-4.2l-0.1-0.2
			l-1.1,0.3c0.4,4.4,2.7,8.9,2.7,9c0.8,1.6,0.9,1.9,2.9,2.6c5.3,1.8,7.3,7.8,4.9,12.4l-5.2,0.2l-0.8,1.7c-0.1,0.1-0.2,0.3-0.4,0.4
			c-0.7,0.3-2.1,0.7-2.6,0.8c-0.6,0.6-2.8,1.1-4.3,0.1c-0.5-0.3-0.8-0.7-0.9-1.2l-0.1,0l0-1.2c-3.9,0.3-7.1,0.5-8.5,0.6
			c0.6-0.3,2.7-2.7,2.7-5.6c0-2.8-1.9-5.1-2.6-5.6c2,0.3,3.9,0.5,5.8,0.7l0,0c0-1.4,1.3-2.9,2.2-3.1c0,0-1.9-0.3-3.5-1.7
			c-2.7-0.6-4.9-2.7-5-2.8c-0.5,0.8-0.8,2-2.1,3.9c-1.4,2.2-3,4.8-4.5,6.3c-0.2,0.2-0.5,0.5-0.8,0.7c-0.1,0.1-0.2,0.2-0.3,0.3
			c-1.8,1.4-3.6,2.2-5.6,1.9l-2.4-0.4l1.2-1.3c-1.4,1.3-2.9,2.6-4.3,3.7c-4.4,3.3-8.9,5.2-12.5,3.5l-2.1-1l2-1.3
			c1-0.6,2-1.4,2.9-2.1c-4,2.3-7.4,3.3-9.6,3.8c-4.5,1-6.3,0.6-9-2.7l1.7-0.8c3.7-1.7,7.2-3.3,10.8-5.2c-6.3,2.5-16,5.2-18-1.4
			l-0.5-1.4l1.5-0.3c0,0,11.6-2.2,22-6.9c-3.6,1.5-11.1,4.4-14.8,1.2l0,0c-0.3-0.2-0.5-0.5-0.7-0.8l-1-1.4l1.7-0.6
			c5-1.7,10.4-3.7,17.2-6.9c2.1-1,4.4-2.2,6.9-3.4l3.3-3.9c2.9-3.4,5.8-6.6,8.8-9.6c-1.1,0.7-2.3,1.2-3.5,1.5
			c-1.5,0.4-2.9,0.4-4.2,0.1c-1.4-0.4-2.6-1.1-3.5-2.4L79,75.4c-1.3,0.6-2.6,0.9-3.9,1.1c-2.1,0.2-4-0.1-5.5-0.9
			C68.4,75,67.5,74,67,72.7l-0.4-1.2c-1,0.5-1.9,0.9-2.9,1.2c-2.1,0.7-4.1,0.9-6,0.9c-2-0.1-3.7-0.6-5.1-1.4
			c-1.4-0.9-2.4-2.1-2.9-3.7l-0.4-1.2c-2.4,0.5-4.7,0.6-6.8,0.3c-2.4-0.3-4.4-1-5.9-2.2c-1.2-0.9-2-2.1-2.3-3.5l-0.5-2.1
			c-1.3-0.2-3-0.6-4.5-1.3c-2.6-1.1-5.2-3-6.6-5.7c-0.5-1-0.9-2-1.1-3.2l0-0.1v-1.9c-1.7-0.9-3.3-2-4.7-3.4
			c-0.2-0.2-0.4-0.4-0.6-0.6c-1.8-1.8-4.2-4.2-4.6-8.4l0,0c0-0.1,0-0.2,0-0.3l0.1-1.2c-1.4-0.9-3-2-4.5-3.5c-3.7-3.6-7-9.3-6.7-17.7
			l0.1-3.8c0.8,1,1.5,2.1,2.3,3.1c3.1,4.1,8.9,8.5,15.7,12.6c-1.9-1.6-4.2-4.1-5.9-7.3C11,13.9,9.9,10,10.2,5.6l0.2-3.1l2.3,2.7
			l0,0.1c0.2,0.3,0.4,0.6,0.6,0.9l0,0c0.3,0.4,0.6,0.7,0.9,1.1l0.3,0.3c0.4,0.5,0.9,0.9,1.2,1.3c14.6,14.4,52.9,20,71.7,22.7
			l1.2,0.2c4.8,0.7,5.4,0.8,9.7,4.4l1.2,1c9.5,8.2,10.6,9.1,20,13.5l7.2-4.4c0.3-0.2,0.7-0.4,1-0.7c0.3-0.2,0.7-0.5,1-0.7
			c2-1.5,4.1-3.3,5.3-4.3c0.3-0.3,0.6-0.5,0.9-0.7c1.6-1.3,2.9-2.4,3.9-3.3c2-1.7,3-2.7,4.5-3.3c1.7-0.8,3.7-1.1,8.1-1.7l2.9-0.4
			c10.3-1.5,18.7-3.1,25.6-4.7c21.2-5,37-12,45-21.1l0-0.2l2.3-2.7l0.2,3.1c0.3,4.4-0.8,8.2-2.5,11.3c-1.5,2.8-3.5,5.1-5.2,6.6
			c6.7-3.6,12.5-7.9,15.6-11.9c0.5-0.9,1.6-2.2,2.3-3.1l0.1,3.8c0.3,8.5-3,14.1-6.7,17.7c-1.2,1.2-2.5,2.2-3.7,3
			c1.3,6.3-6,12.7-12.4,14.6l-1.4,2.3c-0.8,2.8-3.1,5-6.2,6.3c-2.1,0.9-4.2,1.1-5.2,0.8c-0.5-0.1-0.8-0.4-1.2-0.6
			c-0.8,0.1-1.6,0.1-2.4,0.2l-0.7,2.5c-0.4,1.3-1.2,2.3-2.4,3.1c-1.7,1.1-4.2,1.7-6.9,1.7c-0.9,0-1.8,0-2.8-0.1l-0.8,2.3
			c-0.4,1-1.1,1.9-2.1,2.6l0,0c-1.4,0.9-3.3,1.4-5.4,1.5c-2.1,0.1-4.4-0.3-6.6-1.1c-0.6-0.2-1.1-0.4-1.7-0.7l-0.6,2
			c-1.4,5-10.4,4.4-13.3,1l-1.8,1.8c-1.3,1.3-3,1.9-4.9,1.9c-1.9,0-3.9-0.5-5.5-1.5l-0.7-0.4c-1.9,3.2-7.5,9.6-11.7,12.8l0,3.3
			c0,2.7,1.4,12.8,2.7,15.4c0.9,1.8,0.4,2,3.2,2.9c2.2,0.7,3.9,1.7,4.9,3.6c3.1-0.3,6.9-0.6,10.4-1.1c1.4,1.4,2.3,3.1,2.4,5.7
			c0.1,2.6-1.1,5.1-2.1,5.7c-7.4-0.6-11.1-1-16.1-1.2c-0.2,0.4-0.4,1-0.9,1.6l0,0c-0.1,0.1-0.2,0.3-0.4,0.4c-0.6,0.5-1.3,0.8-2,0.7
			l-0.2,0l-0.1,0c-0.3,0.3-0.8,0.4-1.3,0.5c-0.6,0-0.9,0-1.1,0l0,0.1c-0.2,1.1-0.5,2.1-0.8,3c-0.4,0.9-0.8,1.8-1.4,2.6l-2.3,3.3
			c-0.7,1.8-1.7,3.6-2.9,5.4c-1.6,2.2-3.7,4.3-6.5,5.9c-5.3,3.2-9.5,3.9-13.2,4.7l-0.1,0c-2.1,0.4-4,0.8-6,1.6c-2,0.8-4,2.1-6.3,4.2
			l-1.9,1.8l0.5-3.1l-3.2,0.4l1.9-1.8c2.7-2.6,5.1-4.1,7.4-5c2.3-1,4.6-1.4,6.9-1.8c1.7-0.3,3.6-0.7,5.5-1.3
			c1.9-0.6,4.1-1.5,6.4-2.9c2.4-1.4,4.2-3.3,5.6-5.2c-2.5,1.1-5.2,1.8-7.6,2.3c-2.5,0.5-4.8,0.8-6.4,1l-0.9,0.1v0l-0.6,0.1
			c-3.8,0.6-6.9,2.8-6.9,2.9l0,0l-1.9,1.2l0.6-2.7l-3.2-0.3L94.9,138.4L94.9,138.4z M98.2,110.1c-0.5,0-3.1,2.5-3.1,5.6
			c0,3.1,2.6,5.6,3.1,5.6c0.5,0,3-2.5,3-5.6C101.3,112.6,98.7,110.1,98.2,110.1L98.2,110.1z M98.3,111.6c0.8,2.1,0.7,6.2,0,8.3
			c0.6-0.4,1.5-2,1.5-4.4C99.8,113.2,98.3,111.6,98.3,111.6L98.3,111.6z M130.1,111.3L130.1,111.3c0,0.1,0,0.1,0.1,0.2
			c0.3,0.8,0.9,2.5,1,4.6c0.1,2.2-0.5,3.7-0.8,4.3v0c0.3,0,0.6,0,0.7,0l0.1-0.1c1.5-2.7,0.8-6.3-0.1-8.4
			C130.7,111.7,130.3,111.5,130.1,111.3L130.1,111.3z M103.8,136.5c-2.3,0.3-4.3,1.2-5.7,1.9l-0.1,0.4c1.4-0.8,3.5-1.7,5.8-2.1
			l0.6-0.1l0,0l0.9-0.1c1.6-0.2,3.8-0.5,6.2-0.9c2.3-0.5,4.9-1.1,7.3-2.2c0.2-0.2,0.3-0.4,0.5-0.7c-2.1,1-4.3,1.7-6.4,2.2
			c-3,0.7-5.8,1.1-7.7,1.3l-0.8,0.1L103.8,136.5L103.8,136.5z M126.1,112c-0.2,0-0.4,0-0.6,0c0.4,0.9,0.8,2.3,0.8,4
			c0,1.1-0.1,2.2-0.4,3.4c0.2,0,0.5-0.1,0.7-0.1c0.1-0.2,0.1-0.4,0.1-0.6c0,0,0.3-1.1,0.3-1.2l-0.1-2.3c0-0.7-0.1-1.3-0.3-1.9
			C126.5,113,126.4,112.5,126.1,112L126.1,112z M128.7,115.5l-0.1,0.4v2.9c0,0,0,0.2,0,0.6l0.3,0c0.2-0.5,0.6-1.6,0.5-3.2
			c-0.1-1.3-0.4-2.6-0.7-3.4c0,0.2,0.1,0.5,0.1,0.7C128.9,114.2,128.8,114.9,128.7,115.5L128.7,115.5z M125.8,122.4l0-0.2l-0.4,0
			c0,1.4-0.3,4.3-1.3,7.5c-1.3,4.2-3.9,8.9-9.2,12.1c-2.5,1.5-4.7,2.4-6.8,3.1c-2.1,0.6-3.9,1-5.7,1.3c-2.3,0.4-4.4,0.8-6.6,1.7
			c-1.5,0.6-3.1,1.5-4.8,2.8l0,0l-0.1,0.5c1.7-1.4,3.4-2.3,5-3c2.2-0.9,4.2-1.3,6.4-1.7l0.1,0c3.6-0.7,7.5-1.4,12.6-4.4
			c2.6-1.5,4.5-3.4,6-5.5c1.5-2,2.5-4.2,3.2-6.3l0.1-0.2l0,0c0.3-0.8,0.5-1.6,0.7-2.4c0.2-0.7,0.3-1.3,0.4-1.9l0.1-0.9
			C125.7,124,125.8,123.1,125.8,122.4L125.8,122.4z M128.5,122.2l-0.2,0l0.1,1.1l0-0.1C128.4,122.9,128.4,122.5,128.5,122.2z"/>
		<g>
			<path class="st1" d="M1.8,12.7c0,0.2,0.1,0.4,0.2,0.7C1.9,13.2,1.9,13,1.8,12.7L1.8,12.7z M98.3,111.6c0,0,1.4,1.2,1.5,3.9
				c0.1,2.7-1.5,4.4-1.5,4.4S99,115.8,98.3,111.6L98.3,111.6z M98.7,50.3c-7.7-0.4-20.5-2.5-28.9-7.8c8.1,0.7,14.7,0.6,20.2,0.2
				l-0.4-0.4c-17.1-3.8-58.1-12.5-73-27.7c2.6,6.7,5.4,10.6,5.4,10.6l-0.2-0.1C20,24.2,10.7,17,11.5,5.8l0,0l0,0
				c0.5,0.8,1.1,1.6,1.8,2.4c0.6,0.6,1.1,1.2,1.5,1.6C29.9,24.7,69,30.3,87.8,33c5.1,0.7,5.5,0.7,9.7,4.2
				c10.9,9.4,11.6,10.1,22.1,15c0.2-0.1,0.4-0.2,0.7-0.3c5-1.9,10.1-3.2,14.5-3.5c4.3-0.3,12.1,0.6,14.5,5.5c0.4,0.9,0.7,2,0.7,3.4
				c1.9,2.6,2.9,6.6-0.7,8.2c1.6-2.4-1.7-5.7-4.7-3.8c-3.5,2.2-7.3,7.7-16.7,9.4c0.6-0.8,0.9-2.3,1-2.9c-3.1,1.3-8,1.7-10.7,1.5
				c0,0,3.5-1.7,4.2-3.7C109.9,70.5,93.1,82.7,83.4,88c9.3-11.2,19.8-19.7,26.2-24.6c-6.5-0.7-14.1-2.5-19.7-5.4
				c5.4,0.3,12.5,0.1,18.7-0.4l0,0c-8-0.2-21.1-2.3-29.1-6.6C88.2,51.5,94.2,51.1,98.7,50.3L98.7,50.3z M8.5,24.4
				c5.8,6.2,16.5,12.6,35.8,12.9C29.5,32.8,8.8,21.9,1.8,12.6l0,0l0,0l0,0l-0.1-0.1C1.2,28.5,14.2,33.7,16.4,34.6
				C13.5,32.1,10.9,29.4,8.5,24.4L8.5,24.4z M15.7,36.8L12.8,35c0,0,0,0,0,0.1c0.3,4.2,3.2,6.5,4.8,8.2c4.2,4.4,11.2,5.6,15.3,5.3
				c-2.4-0.7-6-2.2-9.3-4.4c5.4,2.1,13.1,3.2,24,1.4C31.6,44.2,20.6,39.5,15.7,36.8L15.7,36.8L15.7,36.8z M130.4,121.3
				c0.5,0,0.9,0,1,0c0.3,0,0.6-0.1,0.9-0.2c0.9-0.3,1.5-1,2.1-1.4c-0.5,1.1-0.9,1.7-2,2.1c0,0,0,0-0.1,0.1l0,0l0,0
				c-0.4,0.4-1.2,0.5-2,0.3L130.4,121.3L130.4,121.3z M95.3,139.1c0,0,3.6-2.7,8.3-3.4c0.5-0.1,1-0.1,1.6-0.2
				c3.7-0.4,11-1.4,16.2-4.7c-0.4,1.3-1.1,2.5-2,3.5c-5,2.2-10.8,2.9-14,3.3c-0.7,0.1-1.3,0.2-1.6,0.2c-4.1,0.6-7.3,3.1-7.3,3.1
				l0.3-1.5L95.3,139.1L95.3,139.1z M124.2,111.5c0.3,0.6,2.3,4.6,0.3,8.9c0,0,0,0,0.1,0l0,0c-0.1,0.2,1.5-0.2,2.6-0.2
				c0.2-0.4,0.3-0.8,0.4-1.2c0,0.3,0,0.7,0,1.1l0.1,0l0,0.1c0.7,0,0.9,0.1,1.8,0c0,0,1-1.6,0.8-4c-0.1-2.5-1.1-4.5-1.1-4.8
				c0,0,0,0-0.1-0.1l0,0c-0.3-0.3-0.9-0.2-1.6-0.2l-0.2,0l0,0.2c0.4,1.2,0.6,2.6,0.4,3.6c-0.1-1.4-0.4-2.4-1.1-3.8l0,0l0-0.1
				c-0.4,0-0.8,0-1.3-0.1C124.5,111.1,124.2,111.5,124.2,111.5L124.2,111.5z M126.6,121.3c-0.9,0.1-2,0.3-2.1,0.2
				c0,1.4,0,13.6-10.1,19.7c-4.9,2.9-8.7,3.6-12.2,4.3c-4.6,0.9-8.7,1.6-13.9,6.6l1.7-0.2l-0.2,1.7c4.7-4.5,8.5-5.3,12.8-6.1
				c3.7-0.7,7.7-1.5,12.9-4.5c5.4-3.2,8.1-7.9,9.6-12.2l0,0c0.7-2.1,1.1-4.2,1.3-5.6l0,0C126.7,123,126.6,121.5,126.6,121.3
				L126.6,121.3z M127.2,121.3l0.7,0c0.5,0,0.7,0.1,1.4,0l0.1,0c0,0.6-0.1,1.5-0.2,2.1c-0.3,2-1,3.7-2.1,5.2
				c0.3-1.4,0.4-2.5,0.4-2.9C127.5,124.2,127.2,121.3,127.2,121.3L127.2,121.3z M110,121.7c0.2,0,2.3-0.1,2.5-0.1
				c0.2,0,0.5,0,0.7-0.1c1-0.3,1.7-1,2.4-1.5c-0.5,1.1-0.9,1.7-2,2.1l0,0C112.9,122.9,110.1,122.6,110,121.7L110,121.7z M116,116.4
				c-0.2,1.2-1.2,1.9-1.2,1.9c1-0.4,1.5-1.1,1.8-1.9c0.1,0,0.1-0.1,0.2-0.1c1.7-2-1-5-2.4-5.9c1.6,0.6,2.4,1.6,3.4,2.9
				c0.3,0.6,0.6,1.3,0.5,1.9c-0.1,0.8,0.2,1.2,0.6,1.3c-0.1,0.9-0.9,1.7-0.9,1.7c1-0.4,1.4-1.2,1.6-1.9c0.5-0.5,0.3-1.3,0.3-1.9
				c-0.1-1.9-1.8-3.6-3-4.3c2.1,0.8,3.8,2.1,3.8,4.6c0,0.8,0.4,1.2,0.7,1.3c-0.1,1-0.8,1.8-0.8,1.8c0.9-0.5,1.3-1.3,1.5-2.1
				c0.9-1.2-0.2-4-1.1-5.1c-2-2.4-5.3-1.6-6.8-4.2c-1.5,0.7-3.4,1.1-3.4,1c0,0.1-0.6,1-0.6,1c-1.5,0.3-2.5,0.9-2.6,1.3l3.9,0.5
				c1.4,0.9,2.5,1.4,3.5,2.6l0,0c0.2,0.2,0.9,0.9,0.7,2.2C115.5,115.8,115.7,116.2,116,116.4L116,116.4z M134.7,116.4
				c-0.3-0.2-0.5-0.6-0.4-1.2c0.2-1.2-0.5-2-0.7-2.2l0,0c-1-1.2-2.1-1.7-3.5-2.6l-3.9-0.5c0-0.2,0.6-0.9,2.2-1.2c0,0,1.1-1,1-1.1
				c0,0.1,2-0.3,3.4-1c1.5,2.5,4.8,1.8,6.8,4.2c0.9,1.1,2.1,4,1.1,5.1c0,0-0.1,0.1-0.1,0.1c-0.2,0.7-0.6,1.3-1.4,1.8
				c0,0,0.6-0.7,0.8-1.6c-0.3-0.1-0.6-0.5-0.7-1.2c0-2.5-1.7-3.8-3.8-4.6c1.2,0.7,2.9,2.4,3,4.3c0,0.5,0.2,1.4-0.3,1.9
				c0,0,0,0-0.1,0.1c-0.2,0.6-0.6,1.2-1.5,1.6c0,0,0.7-0.7,0.9-1.5c-0.3-0.1-0.6-0.5-0.6-1.3c0.1-0.6-0.2-1.4-0.5-1.9
				c-0.9-1.3-1.8-2.2-3.4-2.9c1.3,0.8,4.1,3.9,2.4,5.9c-0.1,0.1-0.2,0.1-0.3,0.2c-0.3,0.6-0.9,1.3-1.7,1.6
				C133.5,118.2,134.4,117.5,134.7,116.4L134.7,116.4z M132.4,121.9c0.1-0.1,0.1-0.3,0-0.7L132.4,121.9L132.4,121.9z M113.8,105.6
				c0,0-3.6-7.3-2.7-12.8c-2.8,1.1-5,3.6-4.4,7c0,0,2.2-2.5,3-2.2c0,0-2.3,2.9-1,6.3c0,0,0.5-1.3,1.9-1.4c-0.6,1.2-0.5,3.1-0.2,4.2
				C110.3,106.6,112.3,106.4,113.8,105.6L113.8,105.6z M111.3,90.3l0.5-3.7c0,0-5.3,1-5.7,7.5C107.3,91.9,109.5,90.7,111.3,90.3
				L111.3,90.3z M111.8,84.8l0.4-3.3c0,0-4.4,2.3-4.4,5.5C107.8,87.1,109.5,85.2,111.8,84.8L111.8,84.8z M116.2,95
				c0.1,1.2,0.2,1.8,0.6,3.2c-0.8-0.7-1.5-1.3-2.1-2.7C115.2,95.4,115.7,95.2,116.2,95L116.2,95z M104.2,98.3c0.2,3.9,3.1,6.9,5,8.6
				C105.8,105.9,101.1,101.9,104.2,98.3L104.2,98.3z M101.5,92.7c-4.7,2.3-1.7,9.6,1.6,11.1C100.4,99.9,100.7,94.5,101.5,92.7
				L101.5,92.7z M99.4,85.3c-6.6,1.7-4,10.6-1.2,13.1C96.6,91.2,97.8,87.4,99.4,85.3L99.4,85.3z M122.8,77c1.2,1.4,3.6,3.4,6.4,3.5
				c-2.8,1-5.7,1.8-8.8,1.5c0.7,1.3,3,2.4,5,2.8c-3.6,1.9-6.3,2.2-7.4,2.1c0.5,0.9,1.1,1.5,2.2,2.1c-2.1,1.5-4.5,2.9-7.1,4.1
				l-0.2,1.5c13.5-3.3,29.4-21,32.8-29.5c0.8,0.4,1.8,0.4,2.5-0.2c0-1-1.8-2.3-3.4-0.9l0,0l0,0l-0.1,0.1l0,0l0,0c0,0,0,0-0.1,0.1
				c-4,4.6-6.8,7.2-16.9,9.1c1,1.3,2.5,1.7,5.4,1.6C128.1,78,122.8,77,122.8,77L122.8,77z M129.3,87.9c0,0-6.3,2.5-6.1,8.6
				c0.9-1,2.5-2.4,4.2-2.5c-1.9,1.3-2.9,3.5-2.5,6c0,0,2.2-2.8,3-2.5c0,0-2.3,2.8-1,6.1c0,0,0.5-1.2,1.9-1.4c-0.6,1.2-0.5,3-0.2,4.1
				c0,0,2-0.2,3.5-1C129,99.1,129.3,94.2,129.3,87.9L129.3,87.9z M122.6,97.8c0.3,4.2,3.1,7,5,8.6
				C124.3,105.5,119.6,101.3,122.6,97.8L122.6,97.8z M120.1,93.1c-4.7,2.2-1.7,9.1,1.6,10.5C119,100,119.3,94.8,120.1,93.1
				L120.1,93.1z M99.1,81.1c-22.2,13.6-33.5,18.1-43.7,21.6C60.1,109.2,89.5,92.5,99.1,81.1L99.1,81.1z M92.8,90
				c-0.2,0.8-0.3,1.9-0.3,3c-15.6,12.4-25.6,17.9-33.9,20.2c-9.2,2.6-10.6-2.2-10.6-2.2s11.7-2.3,22.3-7
				C80.3,99.7,89.4,92.7,92.8,90L92.8,90z M54.6,119.2c12.7-5.7,23.8-11.5,38.4-23.8v0c0.2,0.7,0.6,1.4,1,2.1
				c-6.1,5.2-17.7,15.2-22.2,18C66.2,119,57.7,122.2,54.6,119.2L54.6,119.2z M68.8,120.8c12.4-7.8,17.4-13.2,26-21.9
				c0.3,0.4,0.7,0.9,1,1.3C93.8,103.1,77.6,125,68.8,120.8L68.8,120.8z M86.5,115.1c4.6,0.7,9.1-6.3,12-12.2c-0.5-0.5-1.1-1-1.6-1.6
				C94.3,105.8,91.5,109.7,86.5,115.1L86.5,115.1z M148.2,58.5c0.3-0.5-0.5-1.1-0.8-0.7C147.3,58.3,147.8,58.7,148.2,58.5
				L148.2,58.5z M140.4,55.2c0,0-0.3,1.4,0.7,1.6c0.8,0.2,1.3-0.5,1.1-1c0,0-0.3,0.6-1,0.5C140.5,56.1,140.4,55.2,140.4,55.2
				L140.4,55.2z M137.6,52.9c0.3,0.4,0.7,0.9,0.7,0.9c-0.7,1.7,0.4,4.2,2.9,4c1.5-0.3,1.8-1.8,1.8-1.8c0.5,0.1,0.8,0.1,0.8,0.1
				C143.1,53.2,137.6,52.9,137.6,52.9L137.6,52.9z M220.8,15c-8.5,8.2-25.4,16.1-38,18.5c8.3-2.9,17.8-8,22.8-13.3
				c8.5-3.8,14.9-7.1,20.5-14.1c0-0.1,0-0.1,0.1-0.2l0,0c0.8,11.2-8.5,18.4-10.4,19.3l-0.2,0.1C215.6,25.2,218.3,21.5,220.8,15
				L220.8,15z M236.4,12.5L236.4,12.5L236.4,12.5L236.4,12.5c-7,9.4-28.4,19.9-41.9,21.4c19.1,1.3,29.6-4,35.3-9.8
				c-2.4,5.1-5.1,7.8-8,10.4C224,33.7,237,28.5,236.4,12.5L236.4,12.5L236.4,12.5z M236.2,13.2c0-0.2,0.1-0.3,0.1-0.4
				C236.3,12.9,236.3,13.1,236.2,13.2L236.2,13.2z M217.5,41.8c-4,3.1-9.5,4.8-12.6,5.4c4,0.6,11.1,0.1,15.7-3.9
				c1.8-1.6,4.9-3.6,5.6-7.8c0,0,0,0,0,0l-0.6,0.3c-3,1.3-18.1,6.8-38.2,6.7C201.4,46.2,211.2,44.4,217.5,41.8L217.5,41.8z
				 M205.5,54.3c-1.2,0.7-2.4,1.2-3.3,1.4c1.4,0.8,8.8-1,10.2-6.2l0,0l0-0.1c-7.8,1.9-16.8,4.4-35,1
				C185.6,55.1,197.6,56.7,205.5,54.3L205.5,54.3z M64.8,42.3c-2.5,2.1,1.2,5.6,8.9,5.1C73.7,47.4,67.7,45.6,64.8,42.3L64.8,42.3z
				 M75.7,51.2c-1.9,1.8,1.2,4.4,7.3,3.6C83,54.8,78.1,53.7,75.7,51.2L75.7,51.2z M86.5,58.5c-1.5,1.4,1,3.5,5.8,2.9
				C92.3,61.3,88.5,60.5,86.5,58.5L86.5,58.5z M81,76c3.3,4.5,12.4,1,14.1-5.8C90.4,74.9,83,76.3,81,76L81,76z M68.2,72.4
				c1.9,5.3,14.5,3.7,17.3-5.8C80.7,71.9,70.7,72.9,68.2,72.4L68.2,72.4z M50.8,68.1c2.2,6.8,16.8,5.4,22.9-4.7
				C66.6,69.3,53.7,69.1,50.8,68.1L50.8,68.1z M35.4,61.6c1.5,6.6,18.2,7.3,26.5-3.5C54,63.5,38.5,62.9,35.4,61.6L35.4,61.6z
				 M31.2,55.9c6.9,2,16.4,1.2,24-2.2c-17.2,2.5-24.9-1.6-32.6-4.2l0,0v0v0c1.2,7.5,11.5,10,13.6,8.9C34.9,58,32.8,57.2,31.2,55.9
				L31.2,55.9z M181.1,32c5.6-2.2,11.4-5.3,15.8-8.6c-8.6,2.7-21.7,6.2-42.3,9.2c-13.2,1.9-9.5,0.8-18.8,8.5
				c-0.8,0.7-3.6,3.1-6.2,5.1c-0.7,0.5-1.5,1-2.2,1.5c3-0.8,6-1.4,8.8-1.7c1.6-0.1,5.6,0.1,8.6,1.1c5.5-4.8,6.8-6.1,11.8-7.7
				C163.6,37,172.8,34.8,181.1,32L181.1,32z M152.4,72.3c-2,0.1-4.9-0.4-7.3-1.7c-0.5,0.7-0.8,1.2-1.4,2
				C146.2,74.2,150.2,74.4,152.4,72.3L152.4,72.3z M167.2,70.1c-1,3.5-10.9,3.7-13.6-2.7C157.4,70.2,165.3,70.5,167.2,70.1
				L167.2,70.1z M183.6,65.7c-2.6,0.9-14.4,1-20.9-4.3C168.6,70.4,181.9,70.6,183.6,65.7L183.6,65.7z M196.5,58.8
				c-1.9,6.6-20.3,4.3-25.1-3.2C178.5,59.8,193.6,59.8,196.5,58.8z"/>
		</g>
	</g>
</g>
</svg>
